<?xml version="1.0" standalone="no"?>
<!DOCTYPE svg PUBLIC "-//W3C//DTD SVG 1.1//EN" "http://www.w3.org/Graphics/SVG/1.1/DTD/svg11.dtd" >
<svg xmlns="http://www.w3.org/2000/svg">
<metadata></metadata>
<defs>
<font id="frugalsanslightregularregular" horiz-adv-x="1097" >
<font-face units-per-em="2048" ascent="1638" descent="-410" />
<missing-glyph horiz-adv-x="569" />
<glyph horiz-adv-x="2048" />
<glyph horiz-adv-x="2048" />
<glyph unicode="&#xd;" horiz-adv-x="2048" />
<glyph unicode=" "  horiz-adv-x="569" />
<glyph unicode="&#x09;" horiz-adv-x="569" />
<glyph unicode="&#xa0;" horiz-adv-x="569" />
<glyph unicode="!" horiz-adv-x="737" d="M287 0v164h162v-164h-162zM287 1366h162l-25 -1028h-115z" />
<glyph unicode="&#x22;" horiz-adv-x="600" d="M98 1475h133l-18 -547h-96zM369 1475h133l-19 -547h-96z" />
<glyph unicode="#" d="M74 444l14 103h191l45 307h-189l15 102h190l61 410h109l-61 -410h292l62 410h108l-61 -410h184l-16 -102h-182l-48 -307h185l-17 -103h-182l-67 -444h-109l66 444h-291l-68 -444h-108l65 444h-188zM387 547h293l45 307h-291z" />
<glyph unicode="$" d="M162 1036q0 133 90 221.5t240 102.5v184h94v-180q45 -2 82 -4t71 -8q33 -6 67 -15.5t75 -21.5v2l-15 -129q-33 14 -64.5 26.5t-64.5 18.5q-33 8 -64.5 12t-64.5 4h-4h-4q-4 0 -7 -1t-7 -1v-479q20 -12 40.5 -23.5t41.5 -23.5q106 -61 195 -145t89 -220 q0 -143 -102 -244.5t-268 -115.5v-178h-93v176q-55 0 -107 5t-103 17q-25 6 -50.5 14.5t-52.5 16.5l10 137q53 -25 98.5 -39t88.5 -22q29 -6 57.5 -8t58.5 -2v551q-16 6 -31.5 15t-31.5 19q-98 57 -181 135t-83 203zM299 1049q0 -70 49 -131.5t144 -108.5v440 q-94 -23 -143.5 -73t-49.5 -127zM582 115q90 20 161.5 77.5t71.5 159.5q0 45 -17.5 84t-56.5 76q-27 27 -66.5 53.5t-92.5 55.5v2v-508z" />
<glyph unicode="%" horiz-adv-x="1732" d="M102 1018q0 176 85 277.5t235 101.5q145 0 227 -93.5t82 -261.5v2q0 -182 -83 -283.5t-234 -101.5q-147 0 -229.5 94.5t-82.5 264.5zM227 1016q0 -125 48.5 -189.5t138.5 -64.5q92 0 141 71.5t49 204.5v2q0 125 -45 189.5t-135 64.5q-96 0 -146.5 -69.5t-50.5 -208.5z M420 -86l778 1538h113l-781 -1538h-110zM1001 322q0 178 85 279t235 101q145 0 226 -93t81 -261v2q0 -182 -83 -283.5t-234 -101.5q-145 0 -227.5 94.5t-82.5 262.5zM1126 322q0 -125 48.5 -190.5t138.5 -65.5q92 0 141 71.5t49 206.5v2q0 125 -46 189.5t-136 64.5 q-94 0 -144.5 -70.5t-50.5 -207.5z" />
<glyph unicode="&#x26;" horiz-adv-x="1318" d="M106 360q0 158 98.5 250t233.5 144q-72 63 -129 149t-57 187q0 139 103.5 210.5t228.5 79.5h13h13h8.5h8.5q119 -6 218 -76.5t99 -201.5q0 -141 -94 -225t-207 -140q-6 -2 -11 -5t-11 -5q18 -16 35.5 -34.5t33.5 -37.5l285 -305q57 88 84.5 189.5t36.5 208.5l125 2 q-10 -133 -49 -258t-119 -232l241 -260h-172l-143 158q-90 -94 -190.5 -137.5t-233.5 -43.5q-176 0 -312.5 95.5t-136.5 287.5zM244 358q0 -127 97 -198.5t214 -75.5h7h5q106 0 188.5 43t151.5 119l-401 436q-2 -4 -5 -5t-7 -3q-94 -49 -172 -123t-78 -193zM381 1077 q0 -76 43 -137t94 -113q8 -8 16.5 -15t16.5 -15v2q14 6 29.5 13t29.5 15q78 43 142.5 104.5t64.5 160.5q0 84 -65.5 134t-145.5 50q-88 0 -156.5 -51t-68.5 -148z" />
<glyph unicode="'" horiz-adv-x="329" d="M98 1475h133l-18 -547h-96z" />
<glyph unicode="(" horiz-adv-x="624" d="M98 537q0 250 97.5 487.5t222.5 448.5l102 2q-117 -213 -205 -452t-88 -484q0 -205 75 -438.5t228 -516.5h-102q-133 215 -231.5 455t-98.5 498z" />
<glyph unicode=")" horiz-adv-x="622" d="M94 -416q154 285 227.5 517.5t73.5 437.5q0 250 -89 483t-202 451v2h103q121 -221 219 -451.5t98 -486.5t-97 -497t-230 -456h-103z" />
<glyph unicode="*" d="M182 1169l35 109l281 -102l-11 299h117l-10 -299l283 104l36 -111l-286 -84l186 -235l-96 -70l-168 250l-166 -250l-92 68l180 237z" />
<glyph unicode="+" d="M90 641v109h404v389h108v-389h404v-109h-404v-389h-108v389h-404z" />
<glyph unicode="," horiz-adv-x="548" d="M117 -264l114 432h160l-149 -432h-125z" />
<glyph unicode="-" horiz-adv-x="450" d="M20 453v104h410v-104h-410z" />
<glyph unicode="." horiz-adv-x="548" d="M193 0v168h161v-168h-161z" />
<glyph unicode="/" horiz-adv-x="851" d="M-53 -416l717 1891h116l-717 -1891h-116z" />
<glyph unicode="0" d="M98 702q0 41 2 83t9 85q23 188 118 346t320 158v2q219 -2 335.5 -179t116.5 -517q0 -346 -114.5 -522t-335.5 -176q-227 0 -321.5 158.5t-116.5 348.5q-6 55 -9.5 108.5t-3.5 104.5zM236 684q0 -285 82.5 -438.5t232.5 -153.5q152 0 231.5 150.5t79.5 435.5 q0 289 -81 436.5t-234 147.5v2q-150 -2 -230.5 -149.5t-80.5 -430.5z" />
<glyph unicode="1" d="M252 1104l313 262h115v-1366h-127v1208l-225 -192z" />
<glyph unicode="2" d="M109 0v111l127.5 127.5t152.5 162.5q53 57 104.5 118t96.5 122q72 100 119 197.5t47 179.5q0 98 -75 164.5t-185 66.5h-9.5h-11.5q-68 -4 -139.5 -26.5t-159.5 -71.5l-24 135q78 33 143 54.5t129 27.5q20 4 41.5 5t42.5 1q168 0 277.5 -94t109.5 -238 q0 -133 -61.5 -248.5t-141.5 -218.5q-31 -41 -78 -96t-100 -114q-10 -12 -22.5 -24.5t-22.5 -25.5q-57 -61 -111.5 -115.5t-93.5 -84.5l668 2v-117h-823z" />
<glyph unicode="3" d="M102 41l17 133q63 -29 119.5 -45t109.5 -23q20 -4 42 -5t42 -1q164 0 268.5 80t104.5 205q0 135 -95.5 193.5t-207.5 70.5q-16 0 -32.5 1t-33.5 1l-137 2v115q41 -2 90 -1t100 7q113 12 208.5 63.5t95.5 180.5q0 106 -86 170.5t-226 64.5q-27 0 -52.5 -2t-49.5 -6 q-47 -6 -94 -20.5t-107 -38.5l-10 133q78 27 158 41t161 14q199 0 321 -94t122 -248q0 -125 -86 -210t-203 -107q133 -14 217 -107.5t84 -226.5q0 -180 -137 -285.5t-367 -105.5q-51 0 -101 4t-101 12q-33 6 -66 15.5t-68 19.5z" />
<glyph unicode="4" d="M45 319v123l623 924h170v-930h204v-117h-204v-319h-129v319h-664zM180 434l529 2q0 -2 0 54.5v142.5q-2 47 -2 99v106v265t2 136q-10 -25 -90 -146.5t-175 -263.5q-98 -150 -181 -273z" />
<glyph unicode="5" d="M170 39l2 133q61 -29 115.5 -45t105.5 -23q16 -2 33.5 -3t36.5 -1q170 0 272.5 91.5t102.5 240.5q0 143 -92.5 225t-262.5 82q-70 0 -142.5 -9t-156.5 -32l9 668h714v-102h-592l-4 -441q4 0 8.5 1t8.5 3q43 14 89 20.5t103 6.5q213 0 334 -113.5t121 -308.5 q0 -207 -137.5 -324.5t-374.5 -117.5q-33 0 -62.5 2t-58.5 6q-39 2 -80 13.5t-92 27.5z" />
<glyph unicode="6" d="M111 612q0 371 150.5 566.5t436.5 195.5q23 0 45.5 -1t42.5 -3q39 -4 78 -12t88 -21v2l-14 -122q-61 20 -114.5 31.5t-104.5 13.5h-11.5h-11.5q-242 0 -342 -173.5t-114 -379.5q0 -10 -1 -19.5t-1 -19.5q59 96 152 142t202 46q184 0 298 -121t114 -317q0 -195 -122 -319 t-317 -124q-223 0 -338.5 161t-115.5 474zM264 420q0 -145 82 -238.5t213 -93.5q137 0 222 93t85 243q0 145 -83 233t-218 88v3q-135 -2 -218 -92.5t-83 -235.5z" />
<glyph unicode="7" d="M117 1247v119h841v-119l-536 -1247h-146l541 1247h-700z" />
<glyph unicode="8" d="M90 352q0 147 101.5 234.5t234.5 113.5q-119 31 -206 127.5t-87 221.5q0 154 114.5 231.5t252.5 91.5q14 0 29.5 1t29.5 1q16 0 32.5 -1t33.5 -3q125 -16 228 -92t103 -215q0 -125 -93 -222.5t-208 -135.5v2q137 -20 245 -119t108 -244q0 -184 -136.5 -273t-298.5 -94 h-10h-8h-13h-16q-164 8 -300 98.5t-136 276.5zM227 358q0 -123 93.5 -191.5t205.5 -76.5q8 -2 16.5 -2h16.5q10 0 20.5 1t20.5 1q100 12 185 77.5t85 178.5q0 104 -75.5 166.5t-165.5 101.5q-27 10 -53.5 20.5t-51.5 18.5v2q-16 -8 -32.5 -15t-32.5 -15q-86 -39 -159 -100.5 t-73 -166.5zM272 1038q0 -102 69 -160.5t151 -99.5q18 -8 35.5 -16t33.5 -17v3q18 8 36.5 20t37.5 25q70 47 127 108.5t57 147.5q0 90 -68.5 143t-148.5 65q-14 2 -26.5 3.5t-24.5 1.5h-15.5t-15.5 -2q-94 -8 -171 -63.5t-77 -158.5z" />
<glyph unicode="9" d="M88 930q0 197 123 320.5t315 123.5q252 0 346.5 -174t104.5 -385q2 -16 2 -34.5v-37.5q0 -377 -148.5 -565t-437.5 -188q-20 0 -40.5 1t-39.5 3q-39 4 -79.5 11t-92.5 20v2l13 123q72 -27 129 -38.5t112 -11.5q252 0 350.5 178.5t108.5 391.5v7v5q-55 -94 -150.5 -141 t-203.5 -47q-182 0 -297 120.5t-115 315.5zM225 928q0 -145 83 -233.5t218 -88.5v2q135 -2 218 87t83 235q0 145 -81.5 238.5t-213.5 93.5q-137 0 -222 -92.5t-85 -241.5z" />
<glyph unicode=":" horiz-adv-x="548" d="M193 0v162h161v-162h-161zM193 831v160h161v-160h-161z" />
<glyph unicode=";" horiz-adv-x="548" d="M117 -264l114 432h160l-149 -432h-125zM211 825v168h160v-168h-160z" />
<glyph unicode="&#x3c;" horiz-adv-x="1024" d="M68 635v108l886 408v-125l-753 -338l753 -338v-123z" />
<glyph unicode="=" d="M90 506v108h916v-108h-916zM90 778v111h916v-111h-916z" />
<glyph unicode="&#x3e;" horiz-adv-x="1024" d="M70 225v123l753 338l-753 340v123l886 -408v-108z" />
<glyph unicode="?" horiz-adv-x="1009" d="M211 1325q20 4 39.5 10t38.5 13q49 12 98 18t102 6q176 0 279.5 -93t103.5 -247q0 -106 -51 -186t-112 -154q-2 -2 -3 -4t-4 -2q-57 -72 -106 -147.5t-51 -173.5v-5.5v-5.5q0 -4 1 -9t1 -11l-121 2q0 14 1 26.5t1 22.5q0 12 1 23.5t1 21.5q0 6 1 11t1 10q12 80 57.5 142 t98.5 122q59 66 108 138.5t49 166.5q0 106 -73.5 169.5t-196.5 63.5q-14 0 -27.5 -1t-25.5 -1q-45 -4 -92 -16t-111 -37zM408 0v164h161v-164h-161z" />
<glyph unicode="@" horiz-adv-x="1581" d="M113 680q0 299 205.5 501.5t504.5 202.5q279 0 463 -172t184 -434q0 -193 -101 -340t-234 -147q-63 0 -100.5 29.5t-53.5 97.5q-43 -63 -108.5 -99t-137.5 -36q-127 0 -210 94t-83 241q0 168 104.5 294t244.5 126q80 0 119.5 -17t74.5 -60q10 -12 21.5 -29t23.5 -37 l25 119h104l-86 -443q-4 -31 -7 -54t-5 -44q0 -41 21.5 -66.5t54.5 -25.5q92 0 163.5 120t71.5 275q0 225 -154.5 368.5t-394.5 143.5q-256 0 -431 -176t-175 -432q0 -274 180.5 -441t448.5 -167q80 0 153.5 12t145.5 35q33 12 66.5 25.5t66.5 29.5l6 4l33 -94l-6 -2 q-27 -14 -53.5 -25.5t-53.5 -21.5q-86 -31 -173 -44.5t-185 -13.5q-309 0 -521 192.5t-212 510.5zM559 618q0 -102 53.5 -166.5t139.5 -64.5q102 0 169.5 97.5t67.5 242.5v2q0 78 -45 139.5t-131 61.5q-104 0 -179 -92.5t-75 -219.5z" />
<glyph unicode="A" horiz-adv-x="1312" d="M23 0l550 1366h158l559 -1366h-141l-150 367h-696l-147 -367h-133zM350 479l600 2q0 -2 -47 116t-102 259q-53 135 -99.5 253t-50.5 136q-6 -18 -51 -134t-98 -251q-57 -143 -104 -262z" />
<glyph unicode="B" horiz-adv-x="1099" d="M176 0v1366h281q14 -2 29.5 -2t31.5 -2q156 -10 287 -84t131 -262q0 -121 -70.5 -197t-183.5 -104q133 -14 215 -108.5t82 -233.5q0 -217 -148.5 -293t-328.5 -80h-21.5h-21.5h-283zM307 117h148q15 -1 30 -1h14q21 1 44 3q113 12 206 67.5t93 190.5q0 66 -30 124t-83 93 q-2 2 -4 3t-4 3q-45 29 -101.5 39t-164.5 10l-148 2v-534zM307 768h146q9 -1 19 -1h10q14 1 28 1q106 10 196.5 64.5t90.5 181.5q0 117 -82 167t-183 62q-18 2 -37.5 3t-37.5 1l-150 2v-481z" />
<glyph unicode="C" horiz-adv-x="1206" d="M109 690q0 307 195.5 493.5t516.5 186.5q53 0 98.5 -4t88.5 -14q31 -6 59.5 -15.5t60.5 -21.5v2l-12 -125q-43 16 -83 28.5t-81 20.5q-35 6 -68.5 9t-70.5 3q-256 0 -410.5 -157.5t-154.5 -419.5q0 -260 153.5 -413.5t415.5 -153.5q70 0 128.5 9t115.5 29q14 6 28.5 12.5 t28.5 12.5l8 -129q-16 -8 -31.5 -13t-31.5 -10q-53 -14 -108.5 -20t-125.5 -6q-324 0 -522 181t-198 515z" />
<glyph unicode="D" horiz-adv-x="1314" d="M176 0v1366h186q213 -2 328 -21.5t203 -66.5q145 -78 228 -239.5t83 -362.5q0 -190 -80 -340t-225 -236q-88 -51 -215 -75.5t-295 -24.5h-213zM307 117h139h8q287 -1 449 147q164 150 164 418q0 166 -63.5 293t-178.5 194q-74 43 -162 60.5t-227 17.5l-129 2v-1132z" />
<glyph unicode="E" horiz-adv-x="993" d="M176 0v1366h670v-117h-539v-487h514v-115h-514v-530h563v-117h-694z" />
<glyph unicode="F" horiz-adv-x="905" d="M176 0v1366h647v-117h-516v-485h496v-115h-496v-649h-131z" />
<glyph unicode="G" horiz-adv-x="1386" d="M111 690q0 309 193.5 494.5t514.5 185.5q102 0 190.5 -15.5t164.5 -47.5v2l-19 -123q-68 25 -125 40t-112 21q-25 4 -49.5 5t-49.5 1q-258 0 -414.5 -154.5t-156.5 -410.5q0 -260 163.5 -419.5t428.5 -159.5q31 0 57.5 2t52.5 6q33 4 68 13t78 24v460h-320v117h451v-663 q-45 -18 -88 -31.5t-84 -22.5q-57 -12 -114.5 -16t-121.5 -4q-309 0 -508.5 192.5t-199.5 503.5z" />
<glyph unicode="H" horiz-adv-x="1316" d="M176 0v1366h131v-594h703v594h131v-1366h-131v657h-703v-657h-131z" />
<glyph unicode="I" horiz-adv-x="509" d="M188 0v1366h131v-1366h-131z" />
<glyph unicode="J" horiz-adv-x="696" d="M63 6l5 117q39 -10 61.5 -14.5t42.5 -4.5h5h5q127 0 165 82t42 181q2 18 2 34.5v32.5v932h131v-930q0 -172 -55 -309t-266 -137h-20.5t-20.5 2q-20 0 -43 4t-54 10z" />
<glyph unicode="K" horiz-adv-x="1189" d="M176 0v1366h131v-614l623 614h174l-658 -645l721 -721h-186l-674 686v-686h-131z" />
<glyph unicode="L" horiz-adv-x="909" d="M176 0v1366h131v-1249h555v-117h-686z" />
<glyph unicode="M" horiz-adv-x="1759" d="M176 0v1366h197l499 -1225l510 1225h201v-1366h-131v1229l-524 -1229h-115l-506 1229v-1229h-131z" />
<glyph unicode="N" horiz-adv-x="1339" d="M168 0v1366h162l710 -1173v1173h131v-1366h-155l-717 1171v-1171h-131z" />
<glyph unicode="O" horiz-adv-x="1439" d="M125 676q0 266 146.5 480t437.5 214v2q303 -2 454.5 -215t151.5 -491q0 -309 -162 -493.5t-430 -184.5q-266 0 -432 190.5t-166 497.5zM258 676q0 -258 126 -416t337 -158q209 0 335 155t126 407v16v18q-8 207 -118 381t-345 174v2q-233 -2 -344 -175t-117 -382v-10v-12z " />
<glyph unicode="P" horiz-adv-x="997" d="M176 0v1366h258q121 -2 194.5 -16.5t129.5 -49.5q84 -51 132 -138t48 -189q0 -94 -41 -175t-117 -132q-2 -2 -4 -3t-4 -1q-66 -43 -142.5 -60.5t-197.5 -17.5l-125 2v-586h-131zM307 702h123q2 -2 3 -2h3q137 0 251 56.5t114 218.5q0 160 -109.5 215t-240.5 57h-8.5h-8.5 l-127 2v-547z" />
<glyph unicode="Q" horiz-adv-x="1439" d="M117 680q0 272 150.5 481t447.5 209q274 0 442 -191.5t168 -508.5q0 -205 -86 -384.5t-281 -269.5v2l312 -280h-183l-264 244q-39 -4 -61.5 -4.5t-38.5 -0.5q-301 0 -453.5 212t-152.5 491zM254 676q0 -264 128 -424t339 -160t338 158t127 420v21t-2 24 q-10 203 -120 371.5t-341 168.5v2q-211 -2 -340 -160.5t-129 -420.5z" />
<glyph unicode="R" horiz-adv-x="1103" d="M176 0v1366h264q135 -2 207 -14.5t125 -46.5q80 -47 122 -123t42 -172q0 -139 -89 -226.5t-222 -105.5q45 -6 74.5 -22.5t56.5 -53.5q16 -23 32.5 -53.5t34.5 -73.5l217 -475h-145l-186 418q-2 4 -5.5 10t-7.5 12q-35 80 -81 133.5t-146 53.5l-162 2v-629h-131zM307 745 h109h22q94 -1 152 15q65 18 115 57q37 31 61.5 74t30.5 88q2 8 2 15v14q0 135 -90.5 182t-198.5 55q-18 2 -35.5 2h-36.5l-131 2v-504z" />
<glyph unicode="S" horiz-adv-x="1007" d="M129 1026q0 160 113.5 252t312.5 92q37 0 70.5 -3t68.5 -7q33 -6 67 -15.5t70 -21.5v2l-16 -127q-66 27 -129 41t-127 14q-127 0 -210 -62.5t-83 -160.5q0 -96 75 -153.5t173 -108.5q16 -8 33.5 -16.5t34.5 -16.5q119 -59 217 -142t98 -235q0 -172 -122 -276.5 t-320 -104.5q-45 0 -88 4.5t-86 12.5q-35 6 -71 16t-73 23l13 141q47 -27 90 -43t86 -25q31 -8 63.5 -11t65.5 -3q135 0 219 72t84 186q0 113 -83 174.5t-188 112.5l-22 11t-21 9q-119 57 -217 136t-98 233z" />
<glyph unicode="T" horiz-adv-x="1007" d="M29 1249v117h948v-117h-408v-1249h-131v1249h-409z" />
<glyph unicode="U" horiz-adv-x="1341" d="M176 590v776h131v-774q0 -106 9.5 -176t29.5 -115q41 -94 132 -151.5t196 -57.5q119 0 214 68.5t132 181.5q10 35 16 98.5t6 149.5v776h132v-780q0 -115 -8.5 -185.5t-28.5 -124.5q-53 -143 -175 -221t-286 -78q-162 0 -284 76t-175 211q-20 55 -30.5 135t-10.5 191z" />
<glyph unicode="V" horiz-adv-x="1218" d="M23 1366h143l452 -1227l447 1227h133l-510 -1366h-145z" />
<glyph unicode="W" horiz-adv-x="1867" d="M20 1366h138l348 -1235l346 1235h166l356 -1241l340 1241h131l-391 -1366h-164l-356 1229l-350 -1229h-164z" />
<glyph unicode="X" horiz-adv-x="1224" d="M29 0l501 717l-464 649h157l393 -559l388 559h151l-461 -649l504 -717h-162l-424 618l-432 -618h-151z" />
<glyph unicode="Y" horiz-adv-x="1204" d="M20 1366h158l428 -668l426 668h150l-512 -786v-580h-131v575z" />
<glyph unicode="Z" horiz-adv-x="1017" d="M61 6v117l719 1126h-700v117h848v-123l-711 -1120h731v-117h-887z" />
<glyph unicode="[" horiz-adv-x="649" d="M172 -416v1891h305v-86h-190v-1715h190v-90h-305z" />
<glyph unicode="\" horiz-adv-x="851" d="M72 1475h116l717 -1891h-117z" />
<glyph unicode="]" horiz-adv-x="651" d="M172 -326h193v1715h-193v86h307v-1891h-307v90z" />
<glyph unicode="^" horiz-adv-x="1024" d="M61 762l371 606h162l369 -606h-136l-317 510l-313 -510h-136z" />
<glyph unicode="_" horiz-adv-x="1024" d="M-23 -143h1072v-115h-1072v115z" />
<glyph unicode="`" horiz-adv-x="1024" d="M250 1438h184l176 -262h-112z" />
<glyph unicode="a" horiz-adv-x="1007" d="M88 272q0 160 139.5 245t405.5 85h11h9q16 0 32.5 -2t39.5 -4q0 133 -50 216t-200 83q-25 0 -46 -2t-44 -6q-43 -10 -86 -28.5t-98 -51.5l2 133q61 27 126.5 42t133.5 19q12 2 23.5 2.5t21.5 0.5q111 0 189.5 -44.5t115.5 -128.5q20 -43 26.5 -97t8.5 -163 q0 -72 1 -143.5t3 -142.5q2 -72 4 -143.5t4 -141.5h-117q-2 23 -2 42v30v18v16q2 16 3 33t1 41q-57 -102 -138 -148t-201 -46q-143 0 -230.5 77.5t-87.5 208.5zM217 266q0 -80 58.5 -131t148.5 -51q172 0 237.5 112.5t65.5 262.5v39q-27 0 -47.5 1t-30.5 1q-35 0 -78 -2 t-86 -9q-100 -14 -184 -63t-84 -160z" />
<glyph unicode="b" horiz-adv-x="1095" d="M150 0v1475h126v-502q0 -45 -1 -88t-7 -86q41 92 133.5 148.5t202.5 56.5q184 0 294 -135.5t110 -364.5v-11.5v-11.5q-6 -186 -100.5 -340.5t-307.5 -154.5q-115 0 -196.5 49t-135.5 151q0 -25 1 -48t1 -46t1 -46t1 -46h-122zM276 500q0 -184 85 -300t223 -116 q135 0 215 110.5t80 297.5v2q0 188 -77 298.5t-208 110.5q-137 0 -227.5 -113.5t-90.5 -289.5z" />
<glyph unicode="c" horiz-adv-x="876" d="M68 500q0 229 144 373.5t374 144.5q66 0 126 -8.5t115 -28.5v2l-6 -133q-41 16 -78.5 27.5t-74.5 15.5q-18 4 -37 5t-37 1q-174 0 -283.5 -111.5t-109.5 -287.5q0 -178 108.5 -297t270.5 -119q68 0 128 14.5t117 46.5l13 -127q-49 -23 -118 -34t-147 -11 q-221 0 -363 147.5t-142 379.5z" />
<glyph unicode="d" d="M86 492q0 231 109.5 371.5t289.5 140.5q111 0 196 -51.5t136 -151.5q-2 20 -3 42.5t-1 45.5q-2 20 -2 42.5v43.5v500h127v-1475h-109q-2 14 -2 38.5v53.5v47.5v38.5v18v7q-31 -94 -123 -155.5t-206 -61.5q-186 0 -299 137t-113 369zM215 502q0 -193 79 -305.5t214 -112.5 q139 0 224 113.5t85 298.5v2q-2 178 -89 291.5t-226 113.5q-131 0 -209 -108.5t-78 -292.5z" />
<glyph unicode="e" horiz-adv-x="1005" d="M86 508q0 231 118 370.5t316 139.5q233 0 313 -161t85 -353v-18.5v-16.5l-707 2q8 -178 101.5 -282.5t246.5 -104.5q76 0 145.5 19.5t131.5 58.5l4 -125q-23 -12 -43.5 -19.5t-40.5 -15.5q-47 -10 -94.5 -17.5t-100.5 -7.5q-225 0 -350 139.5t-125 391.5zM215 571l576 2 q-8 125 -70 229.5t-207 104.5q-133 0 -204.5 -98t-90.5 -215q-2 -6 -3 -11t-1 -12z" />
<glyph unicode="f" horiz-adv-x="663" d="M37 891v102h209v107q0 147 45 265t229 118h18.5t18.5 -2q14 -2 31.5 -6.5t40.5 -10.5v2l-11 -110q-20 6 -34.5 9t-28.5 5q-6 2 -13 2h-16q-88 0 -117.5 -59.5t-35.5 -130.5q-2 -20 -2 -40v-38v-111h231v-102h-231v-891h-125v891h-209z" />
<glyph unicode="g" horiz-adv-x="1114" d="M88 508q0 225 113.5 360.5t300.5 135.5q111 0 195.5 -53.5t133.5 -151.5q-2 20 -3 35.5t-3 29.5q0 25 -1 52.5t-1 72.5l121 2v-936q0 -223 -113.5 -354t-349.5 -131q-18 0 -36.5 1t-34.5 3q-55 4 -110.5 17.5t-121.5 37.5l8 133q66 -31 120 -49t108 -24q16 -2 32.5 -3 t32.5 -1q106 0 187.5 44t117.5 124q23 47 31 100t12 108q0 20 1 41t1 41t1 40t1 38q-33 -104 -124 -168.5t-203 -64.5q-184 0 -300 144t-116 376zM217 506q0 -186 82 -299t213 -113q137 0 224 115t87 293q0 170 -90 281.5t-229 111.5v2q-127 -2 -207 -110.5t-80 -280.5z" />
<glyph unicode="h" horiz-adv-x="1083" d="M150 0v1475h124v-105.5v-228.5q-2 -117 -3 -215.5t-3 -114.5q51 92 137.5 142.5t192.5 50.5q174 0 250 -106.5t84 -262.5q2 -18 3 -41t1 -45v-47.5v-40.5v-461h-125v463v37.5v44.5q0 29 -1 57.5t-3 48.5q-10 119 -70.5 181.5t-161.5 62.5q-82 0 -151.5 -47t-110.5 -127 q-14 -29 -22 -63.5t-12 -98.5q0 -8 -1.5 -18.5t-1.5 -20.5q0 -18 -1 -34.5t-1 -24.5v-461h-124z" />
<glyph unicode="i" horiz-adv-x="423" d="M139 1278v168h146v-168h-146zM150 0v993h124v-993h-124z" />
<glyph unicode="j" horiz-adv-x="428" d="M-63 -408l4 113q18 -6 30.5 -9t22.5 -5q6 -2 10 -2h10q80 0 105.5 54t30.5 120q2 18 2 35.5v33.5v1061h124v-1061q0 -137 -36.5 -244.5t-206.5 -107.5h-15.5h-15.5q-12 2 -27.5 4t-37.5 8zM139 1274v168h146v-168h-146z" />
<glyph unicode="k" horiz-adv-x="968" d="M150 0v1475h124v-885l457 403h162l-504 -434l559 -559h-170l-504 512v-512h-124z" />
<glyph unicode="l" horiz-adv-x="423" d="M150 0v1475h124v-1475h-124z" />
<glyph unicode="m" horiz-adv-x="1650" d="M147 991l119 2v-27.5v-33.5v-19.5v-19.5v-56.5v-41.5v2q49 100 129 153.5t185 53.5q113 0 188.5 -60.5t89.5 -161.5q35 100 124 161t202 61q186 0 246.5 -124t68.5 -274q2 -23 2 -44v-44v-518h-125v516q0 29 -1 62.5t-5 70.5q-8 92 -50 169t-151 77q-119 0 -198.5 -100.5 t-79.5 -245.5v-80v-469h-123v469v26.5v28.5q0 27 -1 54.5t-5 56.5q-8 98 -47 179t-152 81q-80 0 -146.5 -50t-101.5 -140q-2 -8 -5 -15.5t-5 -13.5q-12 -39 -16 -81t-4 -114v-481h-125v483q0 125 -2 253t-11 255z" />
<glyph unicode="n" horiz-adv-x="1093" d="M150 991l118 2q2 -18 2 -41.5v-50.5v-11v-11v-26.5v-25.5q-2 -10 -2 -19v-15q45 98 134.5 154.5t201.5 56.5q113 0 195 -53.5t116 -149.5q16 -45 23.5 -108.5t7.5 -192.5v-500h-125v498q0 125 -6 178t-24 92q-27 61 -81.5 94t-123.5 33q-78 0 -145.5 -41t-108.5 -113 q0 -2 -1 -3l-3 -3q-23 -45 -33 -99t-10 -147v-489h-125v618q0 92 -2 185.5t-8 187.5z" />
<glyph unicode="o" horiz-adv-x="1103" d="M88 494q0 238 128 380t341 142v2q211 -2 335 -144.5t124 -379.5q0 -233 -127 -376t-334 -143q-211 0 -339 141.5t-128 377.5zM217 492q0 -180 96.5 -299t239.5 -119q145 0 239.5 119.5t94.5 300.5q0 182 -93.5 303t-238.5 121v2q-150 -2 -244 -121t-94 -307z" />
<glyph unicode="p" d="M150 989l122 2v-43.5v-54.5v-25.5v-25.5v-32.5v-25.5q41 102 132.5 161t207.5 59q184 0 294 -135.5t110 -364.5v-11.5v-11.5q-6 -186 -100.5 -340.5t-307.5 -154.5q-113 0 -194.5 48t-128.5 142q2 -14 3 -102t1 -193q0 -51 -1 -100t-1 -88v-82v-31h-125l-2 1079 q0 82 -3 165t-7 165zM283 500q0 -186 86 -301t223 -115t216 109.5t79 302.5q0 188 -77 297.5t-208 109.5v2q-139 -2 -218 -106.5t-97 -229.5q-2 -16 -3 -34.5t-1 -34.5z" />
<glyph unicode="q" horiz-adv-x="1103" d="M86 500q0 227 110.5 365.5t290.5 138.5q115 0 205 -55.5t135 -153.5q-2 49 -3 98t-1 98l121 2l2 -1409h-125v12v31v116v153q0 104 2 196t4 111q-35 -100 -124 -157.5t-205 -57.5q-186 0 -299 138t-113 374zM215 498q0 -193 80 -303.5t217 -110.5q135 0 222 116.5 t87 295.5q0 176 -90 291.5t-229 115.5v2q-131 -2 -209 -111.5t-78 -295.5z" />
<glyph unicode="r" horiz-adv-x="669" d="M150 991l131 2v-48v-66q0 -29 -1 -55.5t-1 -45.5q33 94 92 160t170 66h5h5q14 -2 29.5 -4.5t42.5 -8.5v-125q-14 2 -24.5 5t-18.5 3q-8 2 -15.5 2.5t-15.5 0.5q-121 0 -181.5 -88.5t-76.5 -192.5q-2 -10 -3 -19.5t-1 -17.5v-559h-125v594q0 98 -3 197.5t-9 199.5z" />
<glyph unicode="s" horiz-adv-x="786" d="M82 29l10 129q45 -25 84 -40.5t76 -21.5q20 -4 40.5 -6t43.5 -2q104 0 173 49t69 123q0 80 -63.5 126t-145.5 85q-8 6 -17.5 10t-19.5 8q-92 45 -169 104.5t-77 172.5q0 115 91 183.5t245 68.5h20.5t22.5 -2q45 -2 92 -12.5t107 -28.5v2l-11 -117q-39 14 -72.5 24.5 t-64.5 16.5q-25 4 -47.5 6t-48.5 2q-92 0 -147.5 -39t-55.5 -102q0 -61 51 -101t123 -75q16 -8 35.5 -17.5t38.5 -19.5q92 -45 170 -110.5t78 -184.5q0 -125 -102.5 -201.5t-266.5 -76.5q-35 0 -66.5 3t-64.5 9t-64.5 14t-66.5 21z" />
<glyph unicode="t" horiz-adv-x="673" d="M41 891v102h203v244l125 43v-287h235v-102h-235v-496q0 -106 3 -146t13 -67q2 -2 3 -5t3 -7q18 -33 52 -51.5t83 -18.5q10 0 18.5 1t16.5 1q12 2 25.5 6.5l31.5 10.5l7 -107q-20 -8 -37 -10t-33 -4q-12 -2 -25.5 -3t-29.5 -1q-158 0 -207 84t-49 223v94v496h-203z" />
<glyph unicode="u" horiz-adv-x="1087" d="M150 415v46v9v11v9.5v9.5v493h124v-491v-62.5t5 -62.5q6 -106 51 -195.5t178 -89.5q74 0 138.5 41t105.5 117q33 59 41 124.5t8 133.5v485h125v-631q0 -92 2 -183t10 -179h-117v12v31v27.5v31.5v58.5v40.5q-45 -106 -131 -160.5t-203 -54.5q-104 0 -179 46t-115 136 q-23 45 -31 96t-10 105q-2 23 -2 46z" />
<glyph unicode="v" horiz-adv-x="886" d="M27 993h133l286 -860l285 860h127l-340 -993h-147z" />
<glyph unicode="w" horiz-adv-x="1550" d="M29 993h135l268 -874l268 874h150l283 -872l262 872h129l-322 -993h-147l-285 864l-268 -864h-148z" />
<glyph unicode="x" horiz-adv-x="894" d="M29 0l344 524l-318 469h152l244 -375l237 375h146l-314 -469l348 -524h-151l-275 424l-270 -424h-143z" />
<glyph unicode="y" horiz-adv-x="886" d="M29 993h133l289 -846l282 846h127l-381 -1114q0 -2 -1 -3t-1 -3q-39 -111 -96 -203t-197 -92h-7h-7q-16 2 -36.5 5t-53.5 9l12 111q16 -6 28.5 -9t22.5 -5q6 -2 13.5 -2h13.5q82 0 123 59t65 131q6 18 11.5 35.5t11.5 34.5q2 4 3 9t3 9z" />
<glyph unicode="z" horiz-adv-x="897" d="M72 0v102l592 789h-572v102h723v-106l-592 -785h598v-102h-749z" />
<glyph unicode="{" horiz-adv-x="1024" d="M242 483v88q63 16 89.5 61.5t26.5 133.5v430q0 168 85 222.5t235 54.5v-84q-119 -4 -162 -47.5t-43 -159.5v-420q0 -98 -21.5 -149.5t-80.5 -86.5v2q57 -37 79.5 -90t22.5 -149v-406q0 -123 43 -166t162 -45v-88q-168 0 -244 60.5t-76 242.5v402q0 88 -25.5 132t-90.5 62 z" />
<glyph unicode="|" horiz-adv-x="1024" d="M451 -342v1706h122v-1706h-122z" />
<glyph unicode="}" horiz-adv-x="1024" d="M346 -328q119 2 161 45t42 158v424q0 94 23.5 145.5t80.5 85.5v2q-57 33 -80.5 85.5t-23.5 150.5v410q0 121 -41 163.5t-162 44.5v89q168 -2 243 -58.5t75 -247.5v-399q0 -92 26.5 -135t91.5 -64v-82q-63 -23 -90.5 -66.5t-27.5 -131.5v-428q0 -164 -81 -221.5 t-237 -57.5v88z" />
<glyph unicode="~" horiz-adv-x="1024" d="M20 598q55 115 122 168t153 53q59 0 113.5 -22.5t107.5 -48.5q14 -6 26.5 -12.5t24.5 -12.5q41 -20 81 -33.5t83 -13.5q37 0 65.5 11t57.5 40q16 16 33.5 40t38.5 56l75 -43q-43 -86 -111.5 -154.5t-172.5 -68.5q-59 0 -111.5 22.5t-103.5 51.5q-2 0 -3 1t-3 1 q-49 27 -100.5 48t-108.5 21q-47 0 -86 -24.5t-76 -81.5l-13.5 -22.5t-15.5 -26.5v2z" />
<glyph unicode="&#xa1;" horiz-adv-x="737" d="M287 -379l22 1028h115l25 -1028h-162zM287 823v164h162v-164h-162z" />
<glyph unicode="&#xa2;" d="M203 684q0 195 113.5 328t304.5 166v168h92v-162q57 -2 112.5 -11.5t108.5 -27.5v2l-6 -125q-23 6 -42.5 13t-37.5 12q-27 8 -58.5 12t-76.5 8v-776q63 2 109 11t89 28q6 2 11.5 5t11.5 5l14 -119q-25 -12 -46 -18t-42 -13q-31 -6 -65.5 -9t-81.5 -3v-168h-92v170 q-193 29 -305.5 170.5t-112.5 333.5zM340 686q0 -147 74.5 -249.5t206.5 -139.5v762q-137 -39 -209 -133.5t-72 -239.5z" />
<glyph unicode="&#xa3;" d="M137 0v117h203v557h-180v102h180q0 229 66.5 410.5t351.5 181.5q16 0 31.5 -1t31.5 -3q35 -2 73 -12.5t91 -26.5v2l-18 -119q-49 18 -84 28.5t-68 14.5q-12 0 -25.5 1t-27.5 1q-186 0 -239.5 -117.5t-53.5 -275.5v-84h330v-102h-330v-557h489v-117h-821z" />
<glyph unicode="&#xa4;" d="M94 973l66 67l153 -153q18 12 35 22.5t35 20.5q39 20 80 30.5t86 10.5q66 0 122 -20.5t111 -63.5l154 151l65 -65l-151 -152q10 -16 19.5 -30.5t17.5 -26.5q23 -43 34 -86t11 -90q0 -57 -14.5 -106.5t-47.5 -98.5l-9 -13.5t-11 -13.5l154 -151l-66 -66l-154 152 q-51 -41 -109.5 -62.5t-123.5 -21.5q-37 0 -73 7t-68 22q-25 10 -47.5 23t-47.5 30l-151 -150l-66 66l150 151q-39 49 -60.5 109.5t-21.5 124.5q0 45 9 84t30 78q8 16 19.5 33.5t23.5 33.5zM279 588q0 -113 78.5 -193t191.5 -80t191.5 80t78.5 193q0 115 -78.5 193.5 t-191.5 78.5v2q-113 -2 -191.5 -81t-78.5 -193z" />
<glyph unicode="&#xa5;" d="M20 1366h150l301 -516q6 -18 18.5 -42t26.5 -48q10 -18 21.5 -38t17.5 -36q12 31 26.5 57.5t28.5 53.5q8 14 16.5 27.5t14.5 27.5l295 514h139l-280 -477h239v-105h-299l-117 -198h396v-105h-400v-481h-129v481h-403v105h397l-117 198h-301v105h240z" />
<glyph unicode="&#xa6;" horiz-adv-x="569" />
<glyph unicode="&#xa7;" d="M121 -358l20 137q80 -37 143.5 -58.5t123.5 -27.5q23 -4 43 -5t43 -1q147 0 235 60t88 163q0 74 -46 129t-148 102l-189 90q-152 70 -223.5 149t-71.5 179q0 113 68.5 192.5t157.5 135.5q2 0 4 2l4 4q-84 41 -140.5 112.5t-56.5 170.5q0 158 113.5 232.5t249.5 84.5 q12 2 25.5 2h25.5q37 0 71.5 -2t69.5 -8q41 -6 85 -18.5t93 -28.5v2l-16 -129q-59 27 -112.5 42t-106.5 21q-16 2 -33.5 3t-36.5 1q-127 0 -206 -57t-79 -147q0 -92 77 -148.5t182 -105.5q16 -10 34.5 -18.5t36.5 -16.5q123 -61 226.5 -142t103.5 -229q0 -88 -50 -166 t-149 -143q84 -41 135.5 -117t51.5 -170q0 -162 -129 -259t-342 -97q-14 0 -29.5 1t-30.5 1q-74 6 -149.5 24.5t-165.5 53.5zM274 592q0 -94 77 -154.5t169 -103.5q47 -23 92 -41.5t80 -34.5q41 20 78 66.5t57 97.5q8 20 12.5 40.5t4.5 39.5q0 68 -43 124t-131 101 q-27 14 -54.5 28.5t-54.5 28.5q-29 12 -55.5 26.5t-54.5 29.5v2q-12 -8 -25.5 -16.5t-26.5 -20.5q-37 -31 -70.5 -75t-45.5 -91q-4 -12 -6.5 -23.5t-2.5 -23.5z" />
<glyph unicode="&#xa8;" horiz-adv-x="1024" d="M264 1219v178h144v-178h-144zM614 1219v178h144v-178h-144z" />
<glyph unicode="&#xa9;" horiz-adv-x="1630" d="M113 680q0 293 206.5 498.5t497.5 205.5v2q291 -2 497 -207.5t206 -498.5q0 -291 -206 -497t-497 -206t-497.5 206t-206.5 497zM190 680q0 -262 183.5 -448.5t443.5 -186.5q258 0 441.5 186.5t183.5 448.5t-183.5 448.5t-441.5 186.5v2q-260 -2 -443.5 -188.5 t-183.5 -448.5zM428 694q0 176 120 283.5t316 107.5q51 0 99.5 -9t95.5 -25v2l-8 -90q-16 4 -31.5 8t-32.5 8q-31 10 -61.5 15t-65.5 5q-150 0 -240 -85t-90 -228q0 -141 89.5 -224t242.5 -83q35 0 65.5 5t61.5 15q16 4 31.5 9.5t32.5 9.5l4 -92q-12 -6 -23.5 -9.5 t-21.5 -7.5q-35 -8 -70 -12t-72 -4q-205 0 -323.5 107.5t-118.5 293.5z" />
<glyph unicode="&#xaa;" horiz-adv-x="702" d="M98 600v84h506v-84h-506zM98 942q0 100 90.5 152.5t262.5 52.5h8h8h14t19 -2q0 84 -35 119.5t-113 35.5q-51 0 -96 -16t-88 -41l2 100q23 12 52.5 21.5t60.5 13.5q23 4 45 5t43 1q135 0 180 -71.5t45 -192.5q0 -35 1 -69.5t3 -69.5v-17.5v-17.5q2 -43 3 -87t1 -87l-92 2 v10.5v12.5q-2 4 -2 10v12v37q-39 -47 -90 -69.5t-111 -22.5q-94 0 -152.5 49t-58.5 129zM199 940q0 -43 34.5 -70.5t85.5 -27.5q111 0 146 66.5t35 158.5v2h-39q-131 -2 -196.5 -33.5t-65.5 -95.5z" />
<glyph unicode="&#xab;" d="M190 506l275 401h115l-261 -401l261 -404h-117zM535 506l272 401h117l-260 -401l260 -404h-119z" />
<glyph unicode="&#xac;" horiz-adv-x="569" />
<glyph unicode="&#xad;" horiz-adv-x="1024" />
<glyph unicode="&#xae;" horiz-adv-x="1630" d="M113 680q0 293 206.5 498.5t497.5 205.5v2q291 -2 497 -207.5t206 -498.5q0 -291 -206 -497t-497 -206t-497.5 206t-206.5 497zM190 680q0 -262 183.5 -448.5t443.5 -186.5q258 0 441.5 186.5t183.5 448.5t-183.5 448.5t-441.5 186.5v2q-260 -2 -443.5 -188.5 t-183.5 -448.5zM582 299v784h168q14 -2 30.5 -2t30.5 -2q92 -6 169 -48t77 -157q0 -66 -41 -116.5t-113 -71.5q14 -8 26.5 -17.5t22.5 -25.5q8 -12 16.5 -27.5t18.5 -35.5l137 -281h-108l-115 240q-10 18 -19.5 34.5t-17.5 28.5q-20 29 -42.5 38t-63.5 9l-80 2v-352h-96z M678 737h55q16 -2 34.5 -1t37.5 5q57 8 103 37t46 94q0 63 -44 89t-97 32q-16 2 -33.5 3t-31.5 1l-70 2v-262z" />
<glyph unicode="&#xaf;" horiz-adv-x="569" />
<glyph unicode="&#xb0;" horiz-adv-x="765" d="M98 1219v2q0 113 83 193.5t202 80.5t202 -81t83 -195q0 -115 -84 -197t-201 -82q-119 0 -202 82t-83 197zM182 1219v2q0 -84 59.5 -142.5t141.5 -58.5q84 0 142.5 57.5t58.5 139.5t-58.5 140t-142.5 58q-82 0 -141.5 -57.5t-59.5 -138.5z" />
<glyph unicode="&#xb1;" d="M90 41v109h916v-109h-916zM90 641v111h404v389h108v-389h404v-111h-404v-389h-108v389h-404z" />
<glyph unicode="&#xb2;" horiz-adv-x="569" />
<glyph unicode="&#xb3;" horiz-adv-x="569" />
<glyph unicode="&#xb4;" horiz-adv-x="1024" d="M414 1176l176 262h184l-250 -262h-110z" />
<glyph unicode="&#xb5;" horiz-adv-x="1036" d="M113 -340v1321h123v-555q0 -117 17 -176.5t64 -104.5q37 -35 87.5 -55t103.5 -20q145 0 214 105.5t77 232.5q2 8 2 17v19v537h123v-981h-123v188q-49 -111 -120 -162t-175 -51q-90 0 -153.5 36t-116.5 118v-469h-123z" />
<glyph unicode="&#xb6;" d="M43 997q0 195 123 281t299 86l491 2v-98h-116v-1684h-107v1684h-196v-1684h-109v1059q-6 -2 -11 -3t-9 -1h-6.5h-4.5q-156 0 -255 100.5t-99 257.5z" />
<glyph unicode="&#xb7;" horiz-adv-x="569" />
<glyph unicode="&#xb8;" horiz-adv-x="1024" d="M473 -371l35 68q35 -16 61.5 -24.5t51.5 -10.5q8 -2 15 -2h15q45 0 74 21.5t29 56.5q0 37 -27 58.5t-74 21.5h-4h-2q-10 0 -22.5 -2t-28.5 -6l-29 30l111 160h84l-84 -117q14 2 22.5 2h16.5q72 0 116 -39t44 -100q0 -70 -62.5 -117t-152.5 -47q-12 0 -23.5 1t-22.5 1 q-35 4 -69.5 15.5t-73.5 29.5z" />
<glyph unicode="&#xb9;" horiz-adv-x="569" />
<glyph unicode="&#xba;" horiz-adv-x="800" d="M98 1067q0 145 84 231t221 86v2q135 -2 217 -88t82 -231q0 -141 -82.5 -228t-216.5 -87q-137 0 -221 86t-84 229zM119 600v84h563v-84h-563zM199 1067q0 -102 57 -170t145 -68q86 0 143.5 68t57.5 170q0 104 -56.5 172t-144.5 68v2q-90 -2 -146 -68.5t-56 -173.5z" />
<glyph unicode="&#xbb;" d="M174 102l260 404l-260 401h117l272 -401l-272 -404h-117zM518 102l260 404l-260 401h115l274 -401l-272 -404h-117z" />
<glyph unicode="&#xbc;" horiz-adv-x="569" />
<glyph unicode="&#xbd;" horiz-adv-x="1714" d="M162 1208l209 164h84v-825h-99v620v74v10q-20 -23 -42.5 -41t-47.5 -34q-4 -4 -8 -7.5t-10 -7.5l-13.5 -9t-13.5 -11zM434 -63l744 1493h100l-741 -1493h-103zM1063 0v80q33 29 80 72t94 90q41 41 79 83t68 85q39 53 62.5 104t23.5 96q0 53 -44 90t-109 37h-12.5h-12.5 q-41 -4 -85 -19.5t-99 -43.5l-18 100q47 18 87 31.5t76 17.5q18 4 36 5t36 1q109 0 180.5 -57t71.5 -145q0 -115 -77 -223.5t-169 -198.5q-35 -33 -67.5 -62.5t-61.5 -56.5l53 2h347v-88h-539z" />
<glyph unicode="&#xbe;" horiz-adv-x="569" />
<glyph unicode="&#xbf;" horiz-adv-x="1009" d="M137 -47q0 109 47 184.5t107 143.5q2 4 5 6t5 6q61 72 112.5 152.5t51.5 203.5l119 2q0 -39 -1 -61.5t-3 -42.5q0 -4 -1 -8t-1 -9q-10 -80 -56.5 -143t-97.5 -123q-59 -66 -108.5 -136.5t-49.5 -162.5q0 -109 74 -172t195 -63q16 0 31.5 1t29.5 3q43 4 90 17t107 36 l6 -125q-68 -25 -136.5 -37t-142.5 -12q-174 0 -278.5 92t-104.5 248zM442 823v164h160v-164h-160z" />
<glyph unicode="&#xc0;" horiz-adv-x="1312" d="M23 0l550 1366h158l559 -1366h-141l-150 367h-696l-147 -367h-133zM350 479l600 2q0 -2 -47 116t-102 259q-53 135 -99.5 253t-50.5 136q-6 -18 -51 -134t-98 -251q-57 -143 -104 -262zM408 1778h184l176 -262h-113z" />
<glyph unicode="&#xc1;" horiz-adv-x="1312" d="M23 0l550 1366h158l559 -1366h-141l-150 367h-696l-147 -367h-133zM350 479l600 2q0 -2 -47 116t-102 259q-53 135 -99.5 253t-50.5 136q-6 -18 -51 -134t-98 -251q-57 -143 -104 -262zM545 1516l176 262h184l-250 -262h-110z" />
<glyph unicode="&#xc2;" horiz-adv-x="1312" d="M23 0l550 1366h158l559 -1366h-141l-150 367h-696l-147 -367h-133zM350 479l600 2q0 -2 -47 116t-102 259q-53 135 -99.5 253t-50.5 136q-6 -18 -51 -134t-98 -251q-57 -143 -104 -262zM358 1516l224 262h153l219 -262h-145l-156 188l-159 -188h-136z" />
<glyph unicode="&#xc3;" horiz-adv-x="1312" d="M23 0l550 1366h158l559 -1366h-141l-150 367h-696l-147 -367h-133zM350 479l600 2q0 -2 -47 116t-102 259q-53 135 -99.5 253t-50.5 136q-6 -18 -51 -134t-98 -251q-57 -143 -104 -262zM373 1563q6 78 49 123t113 45q35 0 66.5 -11.5t62.5 -23.5q2 0 4 -1l2 -1 q31 -12 59.5 -22.5t61.5 -10.5q31 0 48 14.5t27 48.5l76 2q-12 -82 -51 -122.5t-103 -40.5q-35 0 -67.5 10t-65.5 24q-2 0 -4 1t-4 1q-31 12 -60.5 21.5t-62.5 9.5q-27 0 -46 -17.5t-29 -51.5z" />
<glyph unicode="&#xc4;" horiz-adv-x="1312" d="M23 0l550 1366h158l559 -1366h-141l-150 367h-696l-147 -367h-133zM350 479l600 2q0 -2 -47 116t-102 259q-53 135 -99.5 253t-50.5 136q-6 -18 -51 -134t-98 -251q-57 -143 -104 -262zM410 1559v178h143v-178h-143zM760 1559v178h143v-178h-143z" />
<glyph unicode="&#xc5;" horiz-adv-x="1312" d="M23 0l550 1366h158l559 -1366h-141l-150 367h-696l-147 -367h-133zM350 479l600 2q0 -2 -47 116t-102 259q-53 135 -99.5 253t-50.5 136q-6 -18 -51 -134t-98 -251q-57 -143 -104 -262zM475 1645q0 76 52.5 129t127.5 53v2q76 -2 129.5 -55.5t53.5 -128.5 q0 -74 -53.5 -127.5t-129.5 -53.5q-74 0 -127 53.5t-53 127.5zM555 1647q0 -41 29.5 -71t70.5 -30t71 30t30 71t-30 69.5t-71 28.5v2q-41 -2 -70.5 -30.5t-29.5 -69.5z" />
<glyph unicode="&#xc6;" horiz-adv-x="1740" d="M8 0l815 1360h768v-117h-549l35 -481h488v-117h-480l37 -528h494v-117h-619l-26 367h-596l-223 -367h-144zM444 483h519l-52 785z" />
<glyph unicode="&#xc7;" horiz-adv-x="1214" d="M123 690q0 305 195.5 489.5t517.5 184.5q68 0 123 -6t110 -21q16 -6 34.5 -12t37.5 -12v2l-11 -125q-55 18 -103 31.5t-93 19.5q-27 2 -52.5 4t-54.5 2q-256 0 -410.5 -154.5t-154.5 -412.5q0 -260 154.5 -413.5t414.5 -153.5q70 0 134.5 10t126.5 31q12 4 22 8t21 8 l6 -131q-4 -4 -9.5 -5t-11.5 -3q-61 -18 -124.5 -26.5t-139.5 -8.5q-14 0 -36.5 1t-51.5 3l-72 -102q12 2 22.5 2h16.5q72 0 117 -38t45 -102q0 -68 -62.5 -115.5t-152.5 -47.5h-11h-12q-37 4 -76.5 15t-90.5 34l36 65q41 -18 76 -27.5t68 -9.5q43 0 71.5 22.5t28.5 55.5 q0 35 -27.5 57.5t-70.5 22.5h-3h-3q-10 0 -22.5 -2t-31.5 -6l-28 31l104 151q-127 20 -207 56t-149 102q-4 2 -7 5t-8 7q-92 90 -144 226.5t-52 287.5z" />
<glyph unicode="&#xc8;" horiz-adv-x="993" d="M176 0v1366h670v-117h-539v-487h514v-115h-514v-530h563v-117h-694zM248 1778h184l176 -262h-112z" />
<glyph unicode="&#xc9;" horiz-adv-x="993" d="M176 0v1366h670v-117h-539v-487h514v-115h-514v-530h563v-117h-694zM385 1516l176 262h184l-249 -262h-111z" />
<glyph unicode="&#xca;" horiz-adv-x="993" d="M176 0v1366h670v-117h-539v-487h514v-115h-514v-530h563v-117h-694zM199 1516l223 262h153l220 -262h-146l-155 188l-160 -188h-135z" />
<glyph unicode="&#xcb;" horiz-adv-x="993" d="M176 0v1366h670v-117h-539v-487h514v-115h-514v-530h563v-117h-694zM250 1559v178h143v-178h-143zM600 1559v178h143v-178h-143z" />
<glyph unicode="&#xcc;" horiz-adv-x="509" d="M6 1778h184l177 -262h-113zM188 0v1366h131v-1366h-131z" />
<glyph unicode="&#xcd;" horiz-adv-x="505" d="M141 1516l176 262h185l-250 -262h-111zM188 0v1366h131v-1366h-131z" />
<glyph unicode="&#xce;" horiz-adv-x="509" d="M-43 1516l223 262h154l219 -262h-145l-156 188l-160 -188h-135zM188 0v1366h131v-1366h-131z" />
<glyph unicode="&#xcf;" horiz-adv-x="509" d="M8 1559v178h144v-178h-144zM188 0v1366h131v-1366h-131zM358 1559v178h144v-178h-144z" />
<glyph unicode="&#xd0;" horiz-adv-x="1318" d="M27 653v115h153v598h187q213 -2 327.5 -21.5t202.5 -66.5q145 -78 228 -239.5t83 -362.5q0 -190 -78.5 -339t-226.5 -235q-88 -51 -216 -76.5t-296 -25.5h-211v653h-153zM311 117h140q293 -2 456.5 147.5t163.5 415.5q0 164 -63.5 294t-178.5 195q-72 43 -160.5 60.5 t-228.5 17.5l-129 2v-481h486v-115h-486v-536z" />
<glyph unicode="&#xd1;" horiz-adv-x="1339" d="M168 0v1366h162l710 -1173v1173h131v-1366h-155l-717 1171v-1171h-131zM385 1563q6 78 49 123t113 45q35 0 66.5 -11.5t62.5 -23.5q2 0 4 -1l2 -1q31 -12 59.5 -22.5t61.5 -10.5q31 0 48 14.5t28 48.5l75 2q-12 -82 -51 -122.5t-102 -40.5q-35 0 -68 10t-65 24q-2 0 -4 1 t-5 1q-31 12 -60.5 21.5t-61.5 9.5q-27 0 -46.5 -17.5t-29.5 -51.5z" />
<glyph unicode="&#xd2;" horiz-adv-x="569" />
<glyph unicode="&#xd3;" horiz-adv-x="1439" d="M125 676q0 266 146.5 480t437.5 214v2q303 -2 454.5 -215t151.5 -491q0 -309 -162 -493.5t-430 -184.5q-266 0 -432 190.5t-166 497.5zM258 676q0 -258 126 -416t337 -158q209 0 335 155t126 407v16v18q-8 207 -118 381t-345 174v2q-233 -2 -344 -175t-117 -382v-10v-12z M608 1516l176 262h185l-250 -262h-111z" />
<glyph unicode="&#xd4;" horiz-adv-x="1439" d="M125 676q0 266 146.5 480t437.5 214v2q303 -2 454.5 -215t151.5 -491q0 -309 -162 -493.5t-430 -184.5q-266 0 -432 190.5t-166 497.5zM258 676q0 -258 126 -416t337 -158q209 0 335 155t126 407v16v18q-8 207 -118 381t-345 174v2q-233 -2 -344 -175t-117 -382v-10v-12z M422 1516l223 262h154l219 -262h-146l-155 188l-160 -188h-135z" />
<glyph unicode="&#xd5;" horiz-adv-x="1439" d="M125 676q0 266 146.5 480t437.5 214v2q303 -2 454.5 -215t151.5 -491q0 -309 -162 -493.5t-430 -184.5q-266 0 -432 190.5t-166 497.5zM258 676q0 -258 126 -416t337 -158q209 0 335 155t126 407v16v18q-8 207 -118 381t-345 174v2q-233 -2 -344 -175t-117 -382v-10v-12z M436 1563q6 78 49 123t113 45q35 0 66.5 -11.5t62.5 -23.5q2 0 4 -1l2 -1q31 -12 59.5 -22.5t61.5 -10.5q31 0 48.5 14.5t27.5 48.5l76 2q-12 -82 -51.5 -122.5t-102.5 -40.5q-35 0 -67.5 10t-65.5 24q-2 0 -4 1t-4 1q-31 12 -60.5 21.5t-62.5 9.5q-27 0 -46.5 -17.5 t-29.5 -51.5z" />
<glyph unicode="&#xd6;" horiz-adv-x="1439" d="M125 676q0 266 146.5 480t437.5 214v2q303 -2 454.5 -215t151.5 -491q0 -309 -162 -493.5t-430 -184.5q-266 0 -432 190.5t-166 497.5zM258 676q0 -258 126 -416t337 -158q209 0 335 155t126 407v16v18q-8 207 -118 381t-345 174v2q-233 -2 -344 -175t-117 -382v-10v-12z M473 1556v179h143v-179h-143zM823 1556v179h144v-179h-144z" />
<glyph unicode="&#xd7;" horiz-adv-x="569" />
<glyph unicode="&#xd8;" horiz-adv-x="1437" d="M111 678q0 270 149.5 488t444.5 218q109 0 202.5 -28.5t169.5 -87.5v2l125 160l92 -74l-131 -170q80 -102 121 -233.5t41 -282.5q0 -315 -165 -504t-439 -189q-113 0 -209 33t-176 101l-117 -150l-90 70l127 168q-70 90 -107.5 217t-37.5 262zM248 676 q0 -106 24.5 -198.5t71.5 -176.5l657 875q-51 43 -125.5 67.5t-156.5 24.5q-213 0 -342 -161t-129 -431zM418 213q61 -59 138 -89t165 -30q211 0 339 158t128 416q0 115 -29 224t-80 189v2z" />
<glyph unicode="&#xd9;" horiz-adv-x="1341" d="M176 590v776h131v-774q0 -106 9.5 -176t29.5 -115q41 -94 132 -151.5t196 -57.5q119 0 214 68.5t132 181.5q10 35 16 98.5t6 149.5v776h132v-780q0 -115 -8.5 -185.5t-28.5 -124.5q-53 -143 -175 -221t-286 -78q-162 0 -284 76t-175 211q-20 55 -30.5 135t-10.5 191z M422 1778h184l176 -262h-112z" />
<glyph unicode="&#xda;" horiz-adv-x="1341" d="M176 590v776h131v-774q0 -106 9.5 -176t29.5 -115q41 -94 132 -151.5t196 -57.5q119 0 214 68.5t132 181.5q10 35 16 98.5t6 149.5v776h132v-780q0 -115 -8.5 -185.5t-28.5 -124.5q-53 -143 -175 -221t-286 -78q-162 0 -284 76t-175 211q-20 55 -30.5 135t-10.5 191z M559 1516l176 262h185l-250 -262h-111z" />
<glyph unicode="&#xdb;" horiz-adv-x="1341" d="M176 590v776h131v-774q0 -106 9.5 -176t29.5 -115q41 -94 132 -151.5t196 -57.5q119 0 214 68.5t132 181.5q10 35 16 98.5t6 149.5v776h132v-780q0 -115 -8.5 -185.5t-28.5 -124.5q-53 -143 -175 -221t-286 -78q-162 0 -284 76t-175 211q-20 55 -30.5 135t-10.5 191z M373 1516l223 262h154l219 -262h-146l-155 188l-160 -188h-135z" />
<glyph unicode="&#xdc;" horiz-adv-x="1341" d="M176 590v776h131v-774q0 -106 9.5 -176t29.5 -115q41 -94 132 -151.5t196 -57.5q119 0 214 68.5t132 181.5q10 35 16 98.5t6 149.5v776h132v-780q0 -115 -8.5 -185.5t-28.5 -124.5q-53 -143 -175 -221t-286 -78q-162 0 -284 76t-175 211q-20 55 -30.5 135t-10.5 191z M424 1556v179h143v-179h-143zM774 1556v179h144v-179h-144z" />
<glyph unicode="&#xdd;" horiz-adv-x="569" />
<glyph unicode="&#xde;" d="M176 0v1366h131v-188h232q135 -2 209.5 -16.5t134.5 -53.5q78 -51 123 -138t45 -188q0 -127 -78 -227t-205 -135q-39 -10 -94.5 -16.5t-134.5 -6.5l-232 2v-399h-131zM307 514h238q45 -2 60.5 -2t25.5 2h1h1q115 10 196.5 82t81.5 190q0 84 -47 154t-125 96q-8 2 -16 5 l-16 6q-33 8 -71 11t-99 3l-230 2v-549z" />
<glyph unicode="&#xdf;" horiz-adv-x="1087" d="M150 0v825v121q0 158 17 239t64 148l1 1t1 3q53 74 134.5 112t181.5 38q170 0 271.5 -99.5t101.5 -263.5q0 -137 -65.5 -219t-201.5 -117q164 -10 254 -110t90 -270q0 -193 -116.5 -307.5t-313.5 -114.5q-23 0 -42 1t-35 5q-20 2 -41 6t-45 12l6 119q29 -14 51 -21.5 t45 -11.5q14 -2 28.5 -3t30.5 -1q135 0 218 89t83 233q0 92 -43 163.5t-120 106.5q-31 14 -65 20.5t-69 10.5q-27 2 -54.5 2h-51.5v2v112q135 -2 230.5 71t95.5 216q0 115 -67 187.5t-173 72.5q-143 0 -200.5 -99t-69.5 -220q-4 -29 -5.5 -57.5t-1.5 -55.5v-121v-825h-124z " />
<glyph unicode="&#xe0;" horiz-adv-x="1007" d="M88 272q0 160 139.5 245t405.5 85h11h9q16 0 32.5 -2t39.5 -4q0 133 -50 216t-200 83q-25 0 -46 -2t-44 -6q-43 -10 -86 -28.5t-98 -51.5l2 133q61 27 126.5 42t133.5 19q12 2 23.5 2.5t21.5 0.5q111 0 189.5 -44.5t115.5 -128.5q20 -43 26.5 -97t8.5 -163 q0 -72 1 -143.5t3 -142.5q2 -72 4 -143.5t4 -141.5h-117q-2 23 -2 42v30v18v16q2 16 3 33t1 41q-57 -102 -138 -148t-201 -46q-143 0 -230.5 77.5t-87.5 208.5zM217 266q0 -80 58.5 -131t148.5 -51q172 0 237.5 112.5t65.5 262.5v39q-27 0 -47.5 1t-30.5 1q-35 0 -78 -2 t-86 -9q-100 -14 -184 -63t-84 -160zM242 1438h184l176 -262h-113z" />
<glyph unicode="&#xe1;" horiz-adv-x="1007" d="M88 272q0 160 139.5 245t405.5 85h11h9q16 0 32.5 -2t39.5 -4q0 133 -50 216t-200 83q-25 0 -46 -2t-44 -6q-43 -10 -86 -28.5t-98 -51.5l2 133q61 27 126.5 42t133.5 19q12 2 23.5 2.5t21.5 0.5q111 0 189.5 -44.5t115.5 -128.5q20 -43 26.5 -97t8.5 -163 q0 -72 1 -143.5t3 -142.5q2 -72 4 -143.5t4 -141.5h-117q-2 23 -2 42v30v18v16q2 16 3 33t1 41q-57 -102 -138 -148t-201 -46q-143 0 -230.5 77.5t-87.5 208.5zM217 266q0 -80 58.5 -131t148.5 -51q172 0 237.5 112.5t65.5 262.5v39q-27 0 -47.5 1t-30.5 1q-35 0 -78 -2 t-86 -9q-100 -14 -184 -63t-84 -160zM406 1176l176 262h184l-250 -262h-110z" />
<glyph unicode="&#xe2;" horiz-adv-x="1007" d="M88 272q0 160 139.5 245t405.5 85h11h9q16 0 32.5 -2t39.5 -4q0 133 -50 216t-200 83q-25 0 -46 -2t-44 -6q-43 -10 -86 -28.5t-98 -51.5l2 133q61 27 126.5 42t133.5 19q12 2 23.5 2.5t21.5 0.5q111 0 189.5 -44.5t115.5 -128.5q20 -43 26.5 -97t8.5 -163 q0 -72 1 -143.5t3 -142.5q2 -72 4 -143.5t4 -141.5h-117q-2 23 -2 42v30v18v16q2 16 3 33t1 41q-57 -102 -138 -148t-201 -46q-143 0 -230.5 77.5t-87.5 208.5zM207 1176l223 262h154l219 -262h-146l-155 188l-160 -188h-135zM217 266q0 -80 58.5 -131t148.5 -51 q172 0 237.5 112.5t65.5 262.5v39q-27 0 -47.5 1t-30.5 1q-35 0 -78 -2t-86 -9q-100 -14 -184 -63t-84 -160z" />
<glyph unicode="&#xe3;" horiz-adv-x="1007" d="M88 272q0 160 139.5 245t405.5 85h11h9q16 0 32.5 -2t39.5 -4q0 133 -50 216t-200 83q-25 0 -46 -2t-44 -6q-43 -10 -86 -28.5t-98 -51.5l2 133q61 27 126.5 42t133.5 19q12 2 23.5 2.5t21.5 0.5q111 0 189.5 -44.5t115.5 -128.5q20 -43 26.5 -97t8.5 -163 q0 -72 1 -143.5t3 -142.5q2 -72 4 -143.5t4 -141.5h-117q-2 23 -2 42v30v18v16q2 16 3 33t1 41q-57 -102 -138 -148t-201 -46q-143 0 -230.5 77.5t-87.5 208.5zM217 266q0 -80 58.5 -131t148.5 -51q172 0 237.5 112.5t65.5 262.5v39q-27 0 -47.5 1t-30.5 1q-35 0 -78 -2 t-86 -9q-100 -14 -184 -63t-84 -160zM219 1221q6 78 49 123t113 45q35 0 66.5 -11.5t62.5 -23.5q2 0 4 -1l2 -1q31 -12 59.5 -22.5t61.5 -10.5q31 0 48 14.5t28 48.5l75 2q-12 -82 -51 -122.5t-102 -40.5q-35 0 -67.5 10t-65.5 24q-2 0 -4 1t-4 1q-31 12 -61 21.5t-62 9.5 q-27 0 -46.5 -17.5t-29.5 -51.5z" />
<glyph unicode="&#xe4;" horiz-adv-x="1007" d="M88 272q0 160 139.5 245t405.5 85h11h9q16 0 32.5 -2t39.5 -4q0 133 -50 216t-200 83q-25 0 -46 -2t-44 -6q-43 -10 -86 -28.5t-98 -51.5l2 133q61 27 126.5 42t133.5 19q12 2 23.5 2.5t21.5 0.5q111 0 189.5 -44.5t115.5 -128.5q20 -43 26.5 -97t8.5 -163 q0 -72 1 -143.5t3 -142.5q2 -72 4 -143.5t4 -141.5h-117q-2 23 -2 42v30v18v16q2 16 3 33t1 41q-57 -102 -138 -148t-201 -46q-143 0 -230.5 77.5t-87.5 208.5zM217 266q0 -80 58.5 -131t148.5 -51q172 0 237.5 112.5t65.5 262.5v39q-27 0 -47.5 1t-30.5 1q-35 0 -78 -2 t-86 -9q-100 -14 -184 -63t-84 -160zM258 1217v178h143v-178h-143zM608 1217v178h144v-178h-144z" />
<glyph unicode="&#xe5;" horiz-adv-x="1007" d="M88 272q0 160 139.5 245t405.5 85h11h9q16 0 32.5 -2t39.5 -4q0 133 -50 216t-200 83q-25 0 -46 -2t-44 -6q-43 -10 -86 -28.5t-98 -51.5l2 133q61 27 126.5 42t133.5 19q12 2 23.5 2.5t21.5 0.5q111 0 189.5 -44.5t115.5 -128.5q20 -43 26.5 -97t8.5 -163 q0 -72 1 -143.5t3 -142.5q2 -72 4 -143.5t4 -141.5h-117q-2 23 -2 42v30v18v16q2 16 3 33t1 41q-57 -102 -138 -148t-201 -46q-143 0 -230.5 77.5t-87.5 208.5zM217 266q0 -80 58.5 -131t148.5 -51q172 0 237.5 112.5t65.5 262.5v39q-27 0 -47.5 1t-30.5 1q-35 0 -78 -2 t-86 -9q-100 -14 -184 -63t-84 -160zM324 1305q0 76 52 129t128 53v2q76 -2 129 -55.5t53 -128.5q0 -74 -53 -127.5t-129 -53.5q-74 0 -127 53.5t-53 127.5zM403 1307q0 -41 30 -71t71 -30t70.5 30t29.5 71t-29.5 69.5t-70.5 28.5v2q-41 -2 -71 -30.5t-30 -69.5z" />
<glyph unicode="&#xe6;" horiz-adv-x="1566" d="M88 268q0 162 119 225.5t260 79.5q61 8 121.5 9.5t109.5 1.5q-2 152 -66.5 230.5t-185.5 78.5q-33 0 -64.5 -5t-59.5 -16q-31 -10 -62 -26.5t-65 -38.5l-2 129q49 23 89 37t78 20q23 4 46.5 6t48.5 2q133 0 217 -58t96 -161q25 100 116 159.5t216 59.5q229 0 304 -161.5 t75 -354.5v-3v-3l-664 2q4 -188 94 -288.5t252 -100.5h11.5h11.5q47 2 98 15.5t121 39.5l4 -120q-76 -23 -139.5 -32t-122.5 -9q-158 0 -262.5 67.5t-120.5 184.5q-16 -123 -103.5 -187.5t-232.5 -64.5q-152 0 -245 77.5t-93 204.5zM217 272q0 -78 60.5 -129t152.5 -51 q145 0 199.5 98.5t64.5 217.5q0 18 1 37.5t1 37.5v2h-57q-35 -2 -79 -3t-91 -7q-94 -14 -173 -57t-79 -146zM821 582l531 2q-6 150 -72 234.5t-178 84.5q-119 0 -184.5 -86t-88.5 -190q-2 -12 -4 -23.5t-4 -21.5z" />
<glyph unicode="&#xe7;" horiz-adv-x="878" d="M88 500q0 221 137 359t361 138q39 0 71.5 -3t65.5 -9q23 -6 46.5 -12t47.5 -15v3l-6 -123q-41 14 -76 25t-67 16q-18 4 -37 5t-39 1q-164 0 -267.5 -106.5t-103.5 -276.5t103.5 -285t257.5 -115q66 0 126 13.5t109 40.5l14 -121q-45 -23 -112.5 -32t-151.5 -11l-78 -109 q12 2 19.5 3t13.5 1h1h3q72 0 118 -38.5t46 -100.5q0 -68 -62.5 -116t-150.5 -48h-7h-7q-39 2 -81 13.5t-95 33.5l35 68q45 -18 72.5 -26.5t51.5 -10.5h7.5h5.5q49 0 77.5 21.5t28.5 56.5q0 37 -25.5 57.5t-70.5 20.5h-5h-7q-10 0 -21.5 -2t-27.5 -6l-27 32l108 158 q-190 35 -295.5 171t-105.5 329z" />
<glyph unicode="&#xe8;" horiz-adv-x="1005" d="M86 508q0 231 118 370.5t316 139.5q233 0 313 -161t85 -353v-18.5v-16.5l-707 2q8 -178 101.5 -282.5t246.5 -104.5q76 0 145.5 19.5t131.5 58.5l4 -125q-23 -12 -43.5 -19.5t-40.5 -15.5q-47 -10 -94.5 -17.5t-100.5 -7.5q-225 0 -350 139.5t-125 391.5zM215 571l576 2 q-8 125 -70 229.5t-207 104.5q-133 0 -204.5 -98t-90.5 -215q-2 -6 -3 -11t-1 -12zM240 1438h184l176 -262h-113z" />
<glyph unicode="&#xe9;" horiz-adv-x="1005" d="M86 508q0 231 118 370.5t316 139.5q233 0 313 -161t85 -353v-18.5v-16.5l-707 2q8 -178 101.5 -282.5t246.5 -104.5q76 0 145.5 19.5t131.5 58.5l4 -125q-23 -12 -43.5 -19.5t-40.5 -15.5q-47 -10 -94.5 -17.5t-100.5 -7.5q-225 0 -350 139.5t-125 391.5zM215 571l576 2 q-8 125 -70 229.5t-207 104.5q-133 0 -204.5 -98t-90.5 -215q-2 -6 -3 -11t-1 -12zM403 1176l177 262h184l-250 -262h-111z" />
<glyph unicode="&#xea;" horiz-adv-x="1005" d="M86 508q0 231 118 370.5t316 139.5q233 0 313 -161t85 -353v-18.5v-16.5l-707 2q8 -178 101.5 -282.5t246.5 -104.5q76 0 145.5 19.5t131.5 58.5l4 -125q-23 -12 -43.5 -19.5t-40.5 -15.5q-47 -10 -94.5 -17.5t-100.5 -7.5q-225 0 -350 139.5t-125 391.5zM205 1176 l223 262h154l219 -262h-146l-155 188l-160 -188h-135zM215 571l576 2q-8 125 -70 229.5t-207 104.5q-133 0 -204.5 -98t-90.5 -215q-2 -6 -3 -11t-1 -12z" />
<glyph unicode="&#xeb;" horiz-adv-x="1005" d="M86 508q0 231 118 370.5t316 139.5q233 0 313 -161t85 -353v-18.5v-16.5l-707 2q8 -178 101.5 -282.5t246.5 -104.5q76 0 145.5 19.5t131.5 58.5l4 -125q-23 -12 -43.5 -19.5t-40.5 -15.5q-47 -10 -94.5 -17.5t-100.5 -7.5q-225 0 -350 139.5t-125 391.5zM215 571l576 2 q-8 125 -70 229.5t-207 104.5q-133 0 -204.5 -98t-90.5 -215q-2 -6 -3 -11t-1 -12zM256 1219v178h143v-178h-143zM606 1219v178h144v-178h-144z" />
<glyph unicode="&#xec;" horiz-adv-x="419" d="M-51 1438h184l176 -262h-112zM150 0v993h124v-993h-124z" />
<glyph unicode="&#xed;" horiz-adv-x="419" d="M113 1176l176 262h184l-250 -262h-110zM150 0v993h124v-993h-124z" />
<glyph unicode="&#xee;" horiz-adv-x="423" d="M-86 1176l223 262h154l219 -262h-145l-156 188l-160 -188h-135zM150 0v993h124v-993h-124z" />
<glyph unicode="&#xef;" horiz-adv-x="423" d="M-35 1219v178h144v-178h-144zM150 0v993h124v-993h-124zM315 1219v178h144v-178h-144z" />
<glyph unicode="&#xf0;" horiz-adv-x="1101" d="M86 489q0 225 125 370t321 145q106 0 195.5 -46.5t138.5 -126.5q-43 166 -102 263.5t-162 173.5l-209 -144l-53 74l178 125q-12 4 -24.5 9t-24.5 9q-33 12 -66.5 21.5t-80.5 17.5q-8 0 -15.5 1t-15.5 3l26 105q82 -10 157 -34.5t149 -59.5l219 153l51 -73l-195 -138 q174 -147 245 -353t71 -427q0 -272 -122 -426t-341 -154q-207 0 -336 141.5t-129 370.5zM215 487q0 -174 95.5 -292.5t238.5 -118.5q152 0 245 116.5t93 301.5q0 188 -89 298.5t-241 110.5v2q-152 -2 -247 -117.5t-95 -300.5z" />
<glyph unicode="&#xf1;" horiz-adv-x="1093" d="M150 991l118 2q2 -18 2 -41.5v-50.5v-11v-11v-26.5v-25.5q-2 -10 -2 -19v-15q45 98 134.5 154.5t201.5 56.5q113 0 195 -53.5t116 -149.5q16 -45 23.5 -108.5t7.5 -192.5v-500h-125v498q0 125 -6 178t-24 92q-27 61 -81.5 94t-123.5 33q-78 0 -145.5 -41t-108.5 -113 q0 -2 -1 -3l-3 -3q-23 -45 -33 -99t-10 -147v-489h-125v618q0 92 -2 185.5t-8 187.5zM262 1223q6 78 49 123t113 45q35 0 66.5 -11.5t62.5 -23.5q2 0 4 -1l2 -1q31 -12 59.5 -22.5t61.5 -10.5q31 0 48 14.5t28 48.5l75 2q-12 -82 -51 -122.5t-102 -40.5q-35 0 -67.5 10 t-65.5 24q-2 0 -4 1.5t-4 1.5q-31 12 -61 21t-62 9q-27 0 -46.5 -17.5t-29.5 -51.5z" />
<glyph unicode="&#xf2;" horiz-adv-x="1103" d="M88 494q0 238 128 380t341 142v2q211 -2 335 -144.5t124 -379.5q0 -233 -127 -376t-334 -143q-211 0 -339 141.5t-128 377.5zM217 492q0 -180 96.5 -299t239.5 -119q145 0 239.5 119.5t94.5 300.5q0 182 -93.5 303t-238.5 121v2q-150 -2 -244 -121t-94 -307zM291 1438 h184l176 -262h-112z" />
<glyph unicode="&#xf3;" horiz-adv-x="1103" d="M88 494q0 238 128 380t341 142v2q211 -2 335 -144.5t124 -379.5q0 -233 -127 -376t-334 -143q-211 0 -339 141.5t-128 377.5zM217 492q0 -180 96.5 -299t239.5 -119q145 0 239.5 119.5t94.5 300.5q0 182 -93.5 303t-238.5 121v2q-150 -2 -244 -121t-94 -307zM455 1176 l176 262h184l-250 -262h-110z" />
<glyph unicode="&#xf4;" horiz-adv-x="1103" d="M88 494q0 238 128 380t341 142v2q211 -2 335 -144.5t124 -379.5q0 -233 -127 -376t-334 -143q-211 0 -339 141.5t-128 377.5zM217 492q0 -180 96.5 -299t239.5 -119q145 0 239.5 119.5t94.5 300.5q0 182 -93.5 303t-238.5 121v2q-150 -2 -244 -121t-94 -307zM254 1176 l223 262h154l219 -262h-145l-156 188l-160 -188h-135z" />
<glyph unicode="&#xf5;" horiz-adv-x="1103" d="M88 494q0 238 128 380t341 142v2q211 -2 335 -144.5t124 -379.5q0 -233 -127 -376t-334 -143q-211 0 -339 141.5t-128 377.5zM217 492q0 -180 96.5 -299t239.5 -119q145 0 239.5 119.5t94.5 300.5q0 182 -93.5 303t-238.5 121v2q-150 -2 -244 -121t-94 -307zM268 1223 q6 78 49 123t113 45q35 0 66.5 -11.5t62.5 -23.5q2 0 4 -1l2 -1q31 -12 59.5 -22.5t61.5 -10.5q31 0 48.5 14.5t27.5 48.5l76 2q-12 -82 -51 -122.5t-103 -40.5q-35 0 -67.5 10t-65.5 24q-2 0 -4 1.5t-4 1.5q-31 12 -60.5 21t-62.5 9q-27 0 -46.5 -17.5t-29.5 -51.5z" />
<glyph unicode="&#xf6;" horiz-adv-x="1103" d="M88 494q0 238 128 380t341 142v2q211 -2 335 -144.5t124 -379.5q0 -233 -127 -376t-334 -143q-211 0 -339 141.5t-128 377.5zM217 492q0 -180 96.5 -299t239.5 -119q145 0 239.5 119.5t94.5 300.5q0 182 -93.5 303t-238.5 121v2q-150 -2 -244 -121t-94 -307zM305 1219 v178h144v-178h-144zM655 1219v178h144v-178h-144z" />
<glyph unicode="&#xf7;" horiz-adv-x="569" />
<glyph unicode="&#xf8;" horiz-adv-x="1103" d="M86 33l100 123q-49 66 -73.5 151.5t-24.5 186.5q0 238 128 379t339 141q80 0 150.5 -21.5t128.5 -64.5v2l94 112l78 -65l-99 -119q55 -84 82 -174t27 -190q0 -233 -127 -375t-334 -142q-86 0 -163 25t-136 76l-94 -109zM217 492q0 -70 14.5 -129.5t42.5 -112.5l482 590 q-43 37 -93.5 56t-109.5 19q-147 0 -241.5 -117.5t-94.5 -305.5zM334 170q43 -45 100.5 -69.5t118.5 -24.5q145 0 239.5 117.5t94.5 300.5q0 74 -17.5 144.5t-50.5 121.5v2z" />
<glyph unicode="&#xf9;" horiz-adv-x="1087" d="M150 415v46v9v11v9.5v9.5v493h124v-491v-62.5t5 -62.5q6 -106 51 -195.5t178 -89.5q74 0 138.5 41t105.5 117q33 59 41 124.5t8 133.5v485h125v-631q0 -92 2 -183t10 -179h-117v12v31v27.5v31.5v58.5v40.5q-45 -106 -131 -160.5t-203 -54.5q-104 0 -179 46t-115 136 q-23 45 -31 96t-10 105q-2 23 -2 46zM283 1438h184l176 -262h-113z" />
<glyph unicode="&#xfa;" horiz-adv-x="1087" d="M150 415v46v9v11v9.5v9.5v493h124v-491v-62.5t5 -62.5q6 -106 51 -195.5t178 -89.5q74 0 138.5 41t105.5 117q33 59 41 124.5t8 133.5v485h125v-631q0 -92 2 -183t10 -179h-117v12v31v27.5v31.5v58.5v40.5q-45 -106 -131 -160.5t-203 -54.5q-104 0 -179 46t-115 136 q-23 45 -31 96t-10 105q-2 23 -2 46zM446 1176l177 262h184l-250 -262h-111z" />
<glyph unicode="&#xfb;" horiz-adv-x="1087" d="M150 415v46v9v11v9.5v9.5v493h124v-491v-62.5t5 -62.5q6 -106 51 -195.5t178 -89.5q74 0 138.5 41t105.5 117q33 59 41 124.5t8 133.5v485h125v-631q0 -92 2 -183t10 -179h-117v12v31v27.5v31.5v58.5v40.5q-45 -106 -131 -160.5t-203 -54.5q-104 0 -179 46t-115 136 q-23 45 -31 96t-10 105q-2 23 -2 46zM246 1176l223 262h154l219 -262h-146l-155 188l-160 -188h-135z" />
<glyph unicode="&#xfc;" horiz-adv-x="1087" d="M150 415v46v9v11v9.5v9.5v493h124v-491v-62.5t5 -62.5q6 -106 51 -195.5t178 -89.5q74 0 138.5 41t105.5 117q33 59 41 124.5t8 133.5v485h125v-631q0 -92 2 -183t10 -179h-117v12v31v27.5v31.5v58.5v40.5q-45 -106 -131 -160.5t-203 -54.5q-104 0 -179 46t-115 136 q-23 45 -31 96t-10 105q-2 23 -2 46zM297 1217v178h143v-178h-143zM647 1217v178h144v-178h-144z" />
<glyph unicode="&#xfd;" horiz-adv-x="569" />
<glyph unicode="&#xfe;" horiz-adv-x="1099" d="M152 -418v1893h124v-320v-145v-114t-2 -58q0 -8 -1 -17.5t-1 -19.5q47 96 135.5 151.5t194.5 55.5q186 0 297 -136.5t111 -367.5q0 -236 -111 -378t-293 -142q-113 0 -195.5 48t-134.5 142v-592h-124zM276 498q0 -182 85 -297t221 -115q137 0 216 108.5t79 294.5 q0 195 -76 302.5t-209 107.5v2q-137 -2 -226.5 -115.5t-89.5 -287.5z" />
<glyph unicode="&#xff;" horiz-adv-x="886" d="M29 993h133l289 -846l282 846h127l-381 -1114q0 -2 -1 -3t-1 -3q-39 -111 -96 -203t-197 -92h-7h-7q-16 2 -36.5 5t-53.5 9l12 111q16 -6 28.5 -9t22.5 -5q6 -2 13.5 -2h13.5q82 0 123 59t65 131q6 18 11.5 35.5t11.5 34.5q2 4 3 9t3 9zM199 1219v178h143v-178h-143z M549 1219v178h143v-178h-143z" />
<glyph unicode="&#x152;" horiz-adv-x="1767" d="M111 686q0 348 210.5 516t538.5 168q49 0 97.5 -1t95.5 -3t95 -3t97 -1l371 2v-115h-535v-487h510v-115h-510v-530h561v-117h-462q-39 0 -79 -1t-81 -3q-39 0 -79 -1t-81 -1q-328 0 -538.5 174t-210.5 518zM248 686q0 -262 157.5 -419.5t419.5 -157.5q14 0 27.5 1t26.5 1 q16 2 33.5 5t37.5 7v1110q-23 6 -42 10t-38 6q-12 2 -25.5 3t-27.5 1q-256 0 -412.5 -155.5t-156.5 -411.5z" />
<glyph unicode="&#x153;" horiz-adv-x="1662" d="M86 483q0 248 116.5 389.5t319.5 141.5q129 0 228.5 -67.5t126.5 -172.5q31 113 120.5 176.5t219.5 63.5q190 0 263.5 -132t88.5 -290q4 -33 5 -64.5t1 -62.5l-635 2v-10v-8q-2 -4 -2 -7.5v-5.5q0 -143 87 -242.5t232 -99.5q23 0 44.5 2t44.5 6q37 6 73.5 19.5t75.5 32.5 l4 -125q-53 -20 -90 -30.5t-70 -14.5q-23 -4 -44 -5.5t-46 -1.5q-14 0 -28.5 1.5t-28.5 3.5q-109 12 -203 71.5t-115 175.5q-23 -113 -120 -182.5t-234 -69.5q-203 0 -318.5 135.5t-115.5 370.5zM215 492q0 -186 83 -297t222 -111t220 113.5t81 306.5q0 182 -83 290.5 t-222 108.5v2q-137 -2 -219 -113.5t-82 -299.5zM942 567l506 2q-2 18 -4 41t-6 43q-16 94 -66.5 172t-161.5 78q-113 0 -188.5 -95t-79.5 -241z" />
<glyph unicode="&#x178;" horiz-adv-x="1204" d="M20 1366h158l428 -668l426 668h150l-512 -786v-580h-131v575zM354 1559v178h144v-178h-144zM705 1559v178h143v-178h-143z" />
<glyph unicode="&#x2c6;" horiz-adv-x="1024" d="M227 1223q6 78 49 123t113 45q35 0 66.5 -11.5t62.5 -23.5q2 0 4 -1l2 -1q31 -12 59.5 -22.5t61.5 -10.5q31 0 48.5 14.5t27.5 48.5l76 2q-12 -82 -51 -122.5t-103 -40.5q-35 0 -67.5 10t-65.5 24q-2 0 -4 1.5t-4 1.5q-31 12 -60.5 21t-62.5 9q-27 0 -46.5 -17.5 t-29.5 -51.5z" />
<glyph unicode="&#x2dc;" horiz-adv-x="1024" d="M213 1176l223 262h154l219 -262h-145l-156 188l-160 -188h-135z" />
<glyph unicode="&#x2000;" horiz-adv-x="914" />
<glyph unicode="&#x2001;" horiz-adv-x="1829" />
<glyph unicode="&#x2002;" horiz-adv-x="914" />
<glyph unicode="&#x2003;" horiz-adv-x="1829" />
<glyph unicode="&#x2004;" horiz-adv-x="609" />
<glyph unicode="&#x2005;" horiz-adv-x="457" />
<glyph unicode="&#x2006;" horiz-adv-x="304" />
<glyph unicode="&#x2007;" horiz-adv-x="304" />
<glyph unicode="&#x2008;" horiz-adv-x="228" />
<glyph unicode="&#x2009;" horiz-adv-x="365" />
<glyph unicode="&#x200a;" horiz-adv-x="101" />
<glyph unicode="&#x2010;" horiz-adv-x="450" d="M20 453v104h410v-104h-410z" />
<glyph unicode="&#x2011;" horiz-adv-x="450" d="M20 453v104h410v-104h-410z" />
<glyph unicode="&#x2012;" horiz-adv-x="450" d="M20 453v104h410v-104h-410z" />
<glyph unicode="&#x2013;" d="M98 453v104h901v-104h-901z" />
<glyph unicode="&#x2014;" horiz-adv-x="1353" d="M-29 453v104h1403v-104h-1403z" />
<glyph unicode="&#x2018;" horiz-adv-x="546" d="M150 1044l147 431h125l-113 -431h-159z" />
<glyph unicode="&#x2019;" horiz-adv-x="546" d="M123 1044l115 431h159l-149 -431h-125z" />
<glyph unicode="&#x201a;" horiz-adv-x="569" />
<glyph unicode="&#x201c;" horiz-adv-x="888" d="M150 1044l147 431h125l-113 -431h-159zM494 1044l147 431h125l-113 -431h-159z" />
<glyph unicode="&#x201d;" horiz-adv-x="888" d="M123 1044l113 431h159l-147 -431h-125zM467 1044l113 431h159l-147 -431h-125z" />
<glyph unicode="&#x201e;" horiz-adv-x="888" d="M150 -264l112 432h160l-148 -432h-124zM494 -264l112 432h160l-148 -432h-124z" />
<glyph unicode="&#x2022;" horiz-adv-x="1228" d="M356 586v2q0 98 73 170.5t173 72.5q104 0 178 -72.5t74 -172.5q0 -102 -73.5 -174t-178.5 -72q-100 0 -173 71.5t-73 174.5z" />
<glyph unicode="&#x2026;" horiz-adv-x="1646" d="M193 0v168h161v-168h-161zM741 0v168h162v-168h-162zM1290 0v168h162v-168h-162z" />
<glyph unicode="&#x202f;" horiz-adv-x="365" />
<glyph unicode="&#x2039;" horiz-adv-x="755" d="M190 506l275 401h115l-261 -401l261 -404h-117z" />
<glyph unicode="&#x203a;" horiz-adv-x="755" d="M176 102l260 404l-260 401h117l272 -401l-272 -404h-117z" />
<glyph unicode="&#x205f;" horiz-adv-x="457" />
<glyph unicode="&#x2122;" horiz-adv-x="1660" d="M8 1282v84h588v-84h-244v-694h-98v694h-246zM700 588v784h136l215 -481q23 -49 35 -80t22 -59q2 -2 3 -5.5t1 -7.5l8 -20t8 -23q6 20 13.5 41t15.5 43q12 33 26.5 63.5t30.5 57.5l213 471h138v-784h-99v485v32.5v33.5q0 23 1 49t1 65q-8 -23 -17 -44t-19 -44 q-2 -4 -4.5 -8t-4.5 -10q-8 -16 -15 -33.5t-15 -36.5l-226 -489h-82l-221 491l-73 166q0 -20 1 -38.5t3 -37.5q2 -27 3 -54.5t1 -55.5v-471h-99z" />
<glyph unicode="&#xe000;" horiz-adv-x="993" d="M0 0v993h993v-993h-993z" />
</font>
</defs>
</svg>
